<svg width="172" height="130" viewBox="0 0 172 130" fill="none" xmlns="http://www.w3.org/2000/svg">
<path d="M76.0056 127.383L161.289 72.8842L170.307 14.6611M76.0056 127.383L73.849 47.2034M76.0056 127.383L11.1119 83.0782L1.70135 20.5422M170.307 14.6611L76.9858 46.2233M170.307 14.6611L149.133 10.8581M73.849 47.2034L1.70135 20.5422M73.849 47.2034L76.9858 46.2233M1.70135 20.5422L4.25004 20.0972M76.9858 46.2233L53.8516 37.5974L74.6332 31.7656M149.133 10.8581L111.688 4.13238M149.133 10.8581L135.41 14.7093M4.25004 20.0972L97.1795 1.52661L111.688 4.13238M4.25004 20.0972L17.5817 24.6592L38.5594 20.0972M111.688 4.13238L99.5322 6.78606M38.5594 20.0972L74.6332 31.7656M38.5594 20.0972L97.1795 7.29967M99.5322 6.78606L103.257 7.6087M99.5322 6.78606L97.1795 7.29967M74.6332 31.7656L103.257 23.7327M135.41 14.7093L103.257 7.6087M135.41 14.7093L103.257 23.7327M103.257 23.7327V7.6087M97.1795 7.29967V24.6592" stroke="#00A3D4" stroke-width="3"/>
</svg>
