<svg width="171" height="171" viewBox="0 0 171 171" fill="none" xmlns="http://www.w3.org/2000/svg">
<g clip-path="url(#clip0_67_79)">
<path d="M88.685 145.35L122.355 117.34V101.335M88.685 145.35L32.2643 118.25L27.7143 86.0565M88.685 145.35L87.593 109.338M122.355 101.335L139.646 97.6972L168.948 74.4162L123.63 83.8739M122.355 101.335L97.2391 105.336L87.593 109.338M27.7143 86.0565L28.2603 79.327L2.052 54.4092L36.9965 41.8592L55.0148 57.3193M27.7143 86.0565L55.0148 57.3193M27.7143 86.0565L87.593 109.338M87.593 109.338L121.263 65.686M87.593 109.338L122.901 84.3886M123.63 83.8739L145.47 35.1297L87.0469 25.3081L72.6688 53.3179M123.63 83.8739L122.901 84.3886M72.6688 53.3179L61.9307 50.4078L55.0148 57.3193M72.6688 53.3179L85.3198 56.5187C85.9275 56.6722 86.0332 57.5272 85.5694 57.9489C82.6987 60.5628 88.2483 62.5338 90.8403 59.5762C91.564 58.7502 92.616 58.0868 93.6776 58.3686L121.263 65.686M122.901 84.3886L113.619 81.6916M121.263 65.686L118.715 74.7801L113.619 81.6916M113.619 81.6916L97.603 102.264" stroke="#00A3D4" stroke-width="3"/>
</g>
<defs>
<clipPath id="clip0_67_79">
<rect width="171" height="171" fill="white"/>
</clipPath>
</defs>
</svg>
