<svg width="171" height="171" viewBox="0 0 171 171" fill="none" xmlns="http://www.w3.org/2000/svg">
<g clip-path="url(#clip0_67_101)">
<path d="M1.36798 65.3159L11.0835 112.309M1.36798 65.3159L5.39301 63.453M1.36798 65.3159L32.3749 77.2445M11.0835 112.309L39.1963 131.354V126.8L41.2636 128.042V132.596L72.0638 143.982M11.0835 112.309L72.0638 143.982M5.39301 63.453L72.477 32.4005L96.0425 27.5307M5.39301 63.453L28.654 60.3477M32.3749 77.2445L69.1698 91.3999M32.3749 77.2445L62.7618 60.3477L97.076 71.3194M99.5565 38.6108L98.523 27.0181L96.0425 27.5307M99.5565 38.6108L101.624 39.132M99.5565 38.6108L63.5884 57.2762M96.0425 27.5307L28.654 60.3477M101.624 39.132L81.3659 51.653M101.624 39.132L130.77 46.4775L132.424 46.5678M63.5884 57.2762L31.3413 74.0106L28.654 60.3477M63.5884 57.2762L78.885 62.2109V49.338M153.508 47.7197L169.632 35.2986V49.3756L129.53 86.2248M153.508 47.7197L112.993 81.0493L114.853 98.6455M153.508 47.7197L132.424 46.5678M129.53 86.2248V90.5719L72.0638 143.982M129.53 86.2248L114.853 98.6455M114.853 98.6455L69.1698 91.3999M132.424 46.5678L112.993 60.3477M72.0638 143.982L69.1698 91.3999M97.076 71.3194L67.9294 90.5719M97.076 71.3194L100.59 69.0423M100.59 69.0423L81.3659 63.453V51.653M100.59 69.0423L112.993 60.3477M81.3659 51.653L112.993 60.3477" stroke="#00A3D4" stroke-width="3"/>
</g>
<defs>
<clipPath id="clip0_67_101">
<rect width="171" height="171" fill="white"/>
</clipPath>
</defs>
</svg>
