<svg width="171" height="171" viewBox="0 0 171 171" fill="none" xmlns="http://www.w3.org/2000/svg">
<g clip-path="url(#clip0_67_77)">
<path d="M14.193 132.867L11.97 70.2809M14.193 132.867L103.113 169.29M14.193 132.867L28.899 137.843L100.89 162.963L102.942 163.287M11.97 70.2809L86.526 15.0479M11.97 70.2809L104.31 92.449M11.97 70.2809L49.248 56.9672M103.113 169.29L152.361 113.715V110.427M103.113 169.29L102.942 163.287M102.942 163.287L104.139 163.476M86.526 15.0479L145.863 1.36792L152.835 13.9704C153.846 15.7988 152.996 18.0988 151.038 18.8298L105.071 35.9947C102.537 36.9411 99.6861 35.9773 98.246 33.6869M86.526 15.0479L98.246 33.6869M104.31 92.449L106.704 93.0239M104.31 92.449L132.867 72.3329L49.248 56.9672M49.248 56.9672L57.456 54.0359M106.704 93.0239L159.03 55.9169M106.704 93.0239L104.139 163.476M159.03 55.9169L153.729 108.927L152.361 110.427M159.03 55.9169L84.303 43.7759M104.139 163.476L152.361 110.427M84.303 43.7759L57.456 54.0359M84.303 43.7759L98.246 33.6869M57.456 54.0359L137.313 68.3999L155.952 55.4169" stroke="#00A3D4" stroke-width="3"/>
</g>
<defs>
<clipPath id="clip0_67_77">
<rect width="171" height="171" fill="white"/>
</clipPath>
</defs>
</svg>
