<svg width="171" height="171" viewBox="0 0 171 171" fill="none" xmlns="http://www.w3.org/2000/svg">
<g clip-path="url(#clip0_67_85)">
<path d="M90.0294 169.632L43.1012 141.135L38.646 45.8491M90.0294 169.632L87.802 55.4962M90.0294 169.632L129.978 151.97L132.354 48.2236M38.646 45.8491L87.802 55.4962M38.646 45.8491L55.7987 43.4742M87.802 55.4962L108.593 52.1026M132.354 48.2236L108.741 1.02588H85.2774M132.354 48.2236L108.593 52.1026M132.354 48.2236L90.6235 41.99M108.593 52.1026L77.8518 46.0293M55.7987 43.4742L72.951 41.0994V31.4521L54.2391 1.02588H72.951M55.7987 43.4742L70.1295 45.8491L72.951 45.4151M85.2774 1.02588C85.2774 2.33499 84.6652 3.56879 83.6224 4.36062L79.9422 7.15599C78.5861 8.18609 76.9298 8.74376 75.227 8.74376H71.5129C70.6726 8.74376 69.9116 8.24639 69.5748 7.47658C69.2745 6.79029 69.3593 5.9963 69.7981 5.38908L72.951 1.02588M85.2774 1.02588H72.951M90.6235 41.99V33.2033C90.6235 31.3882 89.2056 29.8892 87.393 29.7886L75.9763 29.1547C75.212 29.1123 74.5618 29.7053 74.5334 30.4704L73.9907 45.2554L72.951 45.4151M90.6235 41.99V48.5526L77.8518 46.0293M72.951 45.4151L77.8518 46.0293M83.0184 24.5104L99.9156 25.5339C100.795 25.5872 101.356 24.611 100.867 23.8778C100.682 23.6004 100.378 23.4255 100.045 23.4052L83.1481 22.3739C82.2883 22.3214 81.7219 23.2545 82.1655 23.993C82.3471 24.2956 82.6662 24.4891 83.0184 24.5104Z" stroke="#00A3D4" stroke-width="3"/>
</g>
<defs>
<clipPath id="clip0_67_85">
<rect width="171" height="171" fill="white"/>
</clipPath>
</defs>
</svg>
