<svg width="171" height="171" viewBox="0 0 171 171" fill="none" xmlns="http://www.w3.org/2000/svg">
<g clip-path="url(#clip0_67_99)">
<path d="M93.195 41.5531L73.872 27.0181L7.52404 52.6681L24.111 69.0984M93.195 41.5531H94.05M93.195 41.5531L25.65 70.6231M24.111 69.0984L25.65 70.6231M24.111 69.0984L0.342041 55.5751L25.65 74.6272M94.05 41.5531L115.767 27.8731L163.134 48.0511L142.443 64.4671M94.05 41.5531L142.443 64.4671M94.05 41.5531L93.708 70.1101M94.05 41.5531L98.496 46.5121L97.641 72.8461M25.65 70.6231L53.181 90.8606M142.443 64.4671L170.487 62.2441L140.22 80.433M142.443 64.4671L115.425 79.6361M93.708 70.1101L74.556 59.8501V84.4741M93.708 70.1101L94.05 70.3481L96.444 72.0133M97.641 72.8461L100.377 74.4675M97.641 72.8461L96.444 72.0133M140.22 80.433L98.496 105.507L71.478 104.31M140.22 80.433L137.655 101.403L72.504 143.982M115.425 79.6361L112.176 81.4604M115.425 79.6361V65.6689C115.425 65.4236 115.175 65.2578 114.95 65.3552C109.748 67.6094 100.244 72.2766 100.377 74.4675M71.478 104.31L45.999 89.9461L25.65 74.6272M71.478 104.31L58.1561 94.5172M71.478 104.31L73.872 102.966M71.478 104.31L72.504 143.982M25.65 74.6272L30.438 107.73L72.504 143.982M58.1561 94.5172L53.181 90.8606M58.1561 94.5172L66.348 90.8606L73.872 97.9831V102.966M73.872 102.966L88.92 94.5172M53.181 90.8606L52.326 70.1101L72.504 83.1481M74.556 84.4741L72.504 83.1481M74.556 84.4741L76.608 85.9088M96.444 72.0133V90.2929M100.377 74.4675L112.176 81.4604M112.176 81.4604L96.444 90.2929M96.444 90.2929L95.4334 90.8606M72.504 83.1481V91.4851M76.608 85.9088L88.92 94.5172M76.608 85.9088L95.418 76.0951L95.4334 90.8606M88.92 94.5172L95.4334 90.8606" stroke="#00A3D4" stroke-width="3"/>
</g>
<defs>
<clipPath id="clip0_67_99">
<rect width="171" height="171" fill="white"/>
</clipPath>
</defs>
</svg>
