<svg width="171" height="171" viewBox="0 0 171 171" fill="none" xmlns="http://www.w3.org/2000/svg">
<g clip-path="url(#clip0_67_87)">
<mask id="mask0_67_87" style="mask-type:luminance" maskUnits="userSpaceOnUse" x="0" y="0" width="171" height="171">
<path d="M171 0H0V171H171V0Z" fill="white"/>
</mask>
<g mask="url(#mask0_67_87)">
<path d="M78.2355 164.844L134.722 107.357L140.107 85.6429M78.2355 164.844L76.6076 127.691M78.2355 164.844L34.6497 126.687L33.0216 109.486M140.107 85.6429L169.29 57.4016L144.867 63.9283M140.107 85.6429L96.0206 127.691H76.6076M76.6076 127.691H52.6854L33.0216 109.486M76.6076 127.691L74.2276 125.579M76.6076 127.691L97.2733 108.387M33.0216 109.486L1.70996 80.4965L26.8845 84.0109M144.867 63.9283L162.401 33.0512L111.426 5.81396L97.2733 33.0512M144.867 63.9283L97.2733 33.0512M144.867 63.9283L119.442 87.6255M97.2733 33.0512L82.2434 5.81396L7.22081 53.1338L26.2255 82.9763M97.2733 33.0512L26.8845 84.0109M119.442 87.6255V78.3628L116.06 75.9055M119.442 87.6255L106.781 99.4495M26.2255 82.9763L26.8845 84.0109M26.2255 82.9763L57.6954 110.906M74.2276 125.579L57.6954 110.906M74.2276 125.579C73.8268 125.223 76.7328 122.906 78.2355 121.792L76.6076 91.1655C69.888 95.3834 64.1619 101.827 60.6116 106.604M97.2733 108.387V99.9519M97.2733 108.387L106.781 99.4495M57.6954 110.906C58.3541 109.802 59.3441 108.309 60.6116 106.604M60.6116 106.604L56.3174 67.6937L76.6076 83.908M76.6076 83.908L78.5187 85.3919M76.6076 83.908C77.1688 83.1597 78.2184 81.8936 79.8638 80.2417M97.2733 99.9519L78.5187 85.3919M97.2733 99.9519L99.4023 65.309M78.5187 85.3919C80.4698 81.5006 87.1782 71.5347 99.4023 65.309M99.4023 65.309C89.4453 71.0501 83.3707 76.7212 79.8638 80.2417M99.4023 65.309L106.265 73.1415C107.644 74.716 108.339 76.7759 108.196 78.8645L106.781 99.4495M79.8638 80.2417V51.5021L104.162 67.9926M116.06 75.9055C116.307 74.372 116.853 69.664 117.086 66.2043C117.162 65.0826 116.28 64.138 115.156 64.166C108.322 64.3373 105.001 66.7163 104.162 67.9926M116.06 75.9055L104.162 67.9926" stroke="#00A3D4" stroke-width="3"/>
</g>
</g>
<defs>
<clipPath id="clip0_67_87">
<rect width="171" height="171" fill="white"/>
</clipPath>
</defs>
</svg>
