<svg width="171" height="171" viewBox="0 0 171 171" fill="none" xmlns="http://www.w3.org/2000/svg">
<g clip-path="url(#clip0_67_66)">
<mask id="mask0_67_66" style="mask-type:luminance" maskUnits="userSpaceOnUse" x="0" y="0" width="171" height="171">
<path d="M171 0H0V171H171V0Z" fill="white"/>
</mask>
<g mask="url(#mask0_67_66)">
<path fill-rule="evenodd" clip-rule="evenodd" d="M131.937 21.7834L10.3925 98.8937C10.0019 98.9242 9.70136 99.1232 9.47762 99.4149C9.24968 99.7121 9.09916 100.107 9.00145 100.528C8.85039 101.178 8.81934 101.917 8.84253 102.522L6.73936 99.6653C27.2814 86.749 57.958 67.3453 83.6275 51.0732C96.4894 42.92 108.094 35.5526 116.537 30.1817C120.759 27.4962 124.19 25.3097 126.592 23.7735C127.793 23.0054 128.738 22.3998 129.395 21.9757C129.724 21.7636 129.981 21.5968 130.162 21.4776C130.34 21.361 130.453 21.2852 130.487 21.2592C130.682 21.1056 130.854 21.047 131.003 21.0415C131.152 21.0361 131.291 21.0836 131.42 21.1676C131.646 21.3141 131.826 21.5634 131.937 21.7834ZM132.181 21.629C132.053 21.3847 131.848 21.1034 131.577 20.927C131.41 20.818 131.213 20.7465 130.992 20.7546C130.771 20.7627 130.542 20.8502 130.309 21.0336C130.289 21.0497 130.19 21.1163 130.005 21.2375C129.824 21.3561 129.568 21.5225 129.239 21.7344C128.582 22.1583 127.639 22.7636 126.437 23.5316C124.035 25.0677 120.604 27.254 116.383 29.9394C107.941 35.3105 96.3358 42.6775 83.4739 50.8308C57.75 67.1373 26.9977 86.5886 6.45574 99.5045L6.39856 99.5404L1.51767 137.034C1.45743 137.497 1.6514 137.956 2.0251 138.236L3.86947 139.615L28.4425 121.066L61.0305 151.042C61.5643 151.533 62.3975 151.488 62.8759 150.943L64.8383 148.708L170.146 45.9904C170.726 45.4248 170.648 44.4713 169.984 44.0068L135.936 20.1882C135.509 19.8893 134.943 19.8765 134.503 20.1558L132.181 21.629ZM64.7309 148.412L169.945 45.7849C170.396 45.3451 170.336 44.6033 169.819 44.2421L135.771 20.4234C135.439 20.1909 134.999 20.181 134.657 20.3983L10.6738 99.0552L64.7309 148.412ZM10.3874 99.1824C10.1052 99.2121 9.88327 99.3578 9.70543 99.5897C9.51244 99.8411 9.37423 100.192 9.28111 100.592C9.10019 101.372 9.09889 102.298 9.15621 102.935L61.2251 150.83C61.6399 151.212 62.288 151.178 62.6601 150.754L64.5336 148.621L10.3874 99.1824ZM8.86807 103.041L3.76085 139.175L2.19704 138.006C1.90638 137.788 1.75551 137.431 1.80237 137.071L6.62838 99.9991L8.86807 103.041ZM4.05983 139.112L28.2277 120.868L9.12232 103.294L4.05983 139.112Z" fill="#00A3D4" stroke="#00A3D4" stroke-width="3"/>
<path fill-rule="evenodd" clip-rule="evenodd" d="M64.0346 149.441L9.3335 100.012L9.52601 99.7991L64.2272 149.228L64.0346 149.441Z" fill="#00A3D4" stroke="#00A3D4"/>
<path fill-rule="evenodd" clip-rule="evenodd" d="M62.4251 151.189L8.86011 101.809L9.0547 101.597L62.6197 150.978L62.4251 151.189Z" fill="#00A3D4" stroke="#00A3D4"/>
<path fill-rule="evenodd" clip-rule="evenodd" d="M63.222 150.292L8.90088 100.93L9.09394 100.718L63.4152 150.08L63.222 150.292Z" fill="#00A3D4" stroke="#00A3D4"/>
<path fill-rule="evenodd" clip-rule="evenodd" d="M2.7854 138.635L7.87904 101.765L8.16341 101.805L3.0698 138.674L2.7854 138.635Z" fill="#00A3D4" stroke="#00A3D4"/>
<path fill-rule="evenodd" clip-rule="evenodd" d="M2.01807 138.201L6.95519 100.472L7.23987 100.509L2.30274 138.238L2.01807 138.201Z" fill="#00A3D4" stroke="#00A3D4"/>
</g>
</g>
<defs>
<clipPath id="clip0_67_66">
<rect width="171" height="171" fill="white"/>
</clipPath>
</defs>
</svg>
