<svg width="171" height="171" viewBox="0 0 171 171" fill="none" xmlns="http://www.w3.org/2000/svg">
<path d="M88.578 154.071L157.662 97.4701L167.922 19.665M88.578 154.071L53.352 162.279M88.578 154.071V114.399M167.922 19.665L88.578 58.824M167.922 19.665L117.648 8.55005L31.977 39.843M53.352 162.279L34.371 150.48C37.8481 147.516 39.6036 141.314 18.81 140.22L3.078 129.105M53.352 162.279C55.2251 156.891 58.8633 148.591 63.9578 140.22M88.578 114.399V110.637M88.578 114.399C78.5742 119.664 70.1798 129.996 63.9578 140.22M88.578 58.824L31.977 39.843M88.578 58.824V110.637M31.977 39.843L36.1316 86.1841M88.578 110.637L74.556 104.099M36.1316 86.1841L36.423 89.4331C16.3134 98.5987 5.814 119.7 3.078 129.105M36.1316 86.1841L50.103 92.6981M3.078 129.105L41.211 125.856M63.9578 140.22L41.211 125.856M41.211 125.856L50.103 92.6981M41.211 125.856L74.556 104.099M74.556 104.099L50.103 92.6981" stroke="#00A3D4" stroke-width="3"/>
</svg>
