<svg width="171" height="171" viewBox="0 0 171 171" fill="none" xmlns="http://www.w3.org/2000/svg">
<g clip-path="url(#clip0_67_81)">
<path d="M96.6357 136.116L8.82102 95.1998L4.92345 78.8016M96.6357 136.116L164.565 73.5478M96.6357 136.116L96.3177 113.031M96.6357 136.116L120.339 81.8266L116.84 78.4832M4.92345 78.8016L5.00618 78.6121C5.31329 77.9096 5.37543 77.1244 5.18265 76.3823L3.584 70.229C3.48281 69.8395 3.13117 69.5676 2.7287 69.5676M4.92345 78.8016L2.7287 69.5676M164.565 73.5478H165.352C165.992 73.5478 166.53 73.0686 166.604 72.4332M164.565 73.5478C164.459 72.6986 164.31 71.0002 164.565 71.0002M96.3177 113.031L96.4801 112.923C96.6761 112.792 96.791 112.57 96.7845 112.335L96.4952 101.915C96.4849 101.545 96.1819 101.25 95.8115 101.25H95.5222M96.3177 113.031L94.2872 111.947C94.0677 111.83 93.9292 111.603 93.9254 111.354L93.7845 101.763C93.7783 101.333 94.1668 101.003 94.5909 101.08L95.5222 101.25M116.84 78.4832L116.362 77.0502L160.906 48.8708M116.84 78.4832L95.5222 91.8564M166.604 72.4332L169.974 43.6166M166.604 72.4332L165.997 71.0002M164.565 71.0002C164.883 71.0002 165.862 70.6818 165.997 71.0002M164.565 71.0002L162.656 66.0648M169.974 43.6166L90.9086 34.542L80.2728 38.3628M169.974 43.6166L162.338 48.7114M80.2728 38.3628L78.5002 38.9996L26.1613 55.5572M80.2728 38.3628L91.5451 39.8478M162.338 48.7114L159.634 55.2388M162.338 48.7114H161.383M26.1613 55.5572L24.5704 54.9204L1.02588 62.4034M26.1613 55.5572L40.479 59.0819M1.02588 62.4034L2.7287 69.5676M1.02588 62.4034L94.5677 90.9285M40.479 59.0819L91.5451 42.0246V39.8478M40.479 59.0819L73.5685 67.2269M94.5677 90.9285L95.5222 91.2196V91.8564M94.5677 90.9285L116.044 77.687L112.863 76.8994M95.5222 101.25V91.8564M165.997 71.0002L163.77 65.7464M163.77 65.7464C163.398 64.2074 162.497 61.034 161.861 60.652M163.77 65.7464C163.515 65.492 162.921 65.8528 162.656 66.0648M161.861 60.652C161.224 60.27 160.111 56.8842 159.634 55.2388M161.861 60.652C161.702 60.758 161.256 60.9704 160.747 60.9704M162.656 66.0648C161.808 64.3668 160.238 60.9704 160.747 60.9704M159.634 55.2388L158.838 55.1591M160.747 60.9704L158.043 55.0798M158.838 55.1591L158.043 55.0798M158.838 55.1591L161.383 48.7114M161.383 48.7114L160.906 48.8708M161.383 48.7114H158.838M158.043 55.0798L160.906 48.8708M158.838 48.7114L92.6586 39.9945M158.838 48.7114L130.521 66.073M112.863 76.8994L73.5685 67.2269M112.863 76.8994L130.521 66.073M73.5685 67.2269L92.6586 58.7416M130.521 66.073L92.6586 58.7416M92.6586 39.9945L91.5451 39.8478M92.6586 39.9945V58.7416" stroke="#00A3D4" stroke-width="3"/>
</g>
<defs>
<clipPath id="clip0_67_81">
<rect width="171" height="171" fill="white"/>
</clipPath>
</defs>
</svg>
