<svg width="171" height="171" viewBox="0 0 171 171" fill="none" xmlns="http://www.w3.org/2000/svg">
<g clip-path="url(#clip0_67_27)">
<path fill-rule="evenodd" clip-rule="evenodd" d="M166.821 72.1965L162.884 71.149L163.011 70.6753L168.264 72.073L63.9532 120.034L3.07788 77.2509L7.13376 76.2742L7.24956 76.7506L4.24803 77.4732L64.0052 119.47L166.821 72.1965Z" fill="#00A3D4" stroke="#00A3D4" stroke-width="3"/>
<path fill-rule="evenodd" clip-rule="evenodd" d="M100.008 50.2739L168.264 68.5295L63.9532 116.743L3.07788 73.7348L100.008 50.2739ZM4.24803 73.9581L64.0052 116.177L166.821 68.6537L100.002 50.7821L4.24803 73.9581Z" fill="#00A3D4" stroke="#00A3D4" stroke-width="3"/>
<path fill-rule="evenodd" clip-rule="evenodd" d="M3.07788 77.2565V73.9658H3.73599V77.2565H3.07788Z" fill="#00A3D4" stroke="#00A3D4" stroke-width="3"/>
<path fill-rule="evenodd" clip-rule="evenodd" d="M6.90557 76.8406C6.8936 76.7931 6.84377 76.7657 6.79674 76.7804L3.89077 77.6861L3.73608 77.2028L6.64206 76.2972C6.97134 76.1946 7.32011 76.3868 7.40386 76.7175L8.34286 80.4241L7.84456 80.5472L6.90557 76.8406Z" fill="#00A3D4" stroke="#00A3D4" stroke-width="3"/>
<path fill-rule="evenodd" clip-rule="evenodd" d="M34.8164 96.2627C34.8164 96.2152 34.7753 96.1775 34.7268 96.1799L30.4174 96.4091L30.3896 95.9139L34.6991 95.6847C35.0393 95.6666 35.3256 95.9306 35.3256 96.2627V99.3034H34.8164V96.2627Z" fill="#00A3D4" stroke="#00A3D4" stroke-width="3"/>
<path fill-rule="evenodd" clip-rule="evenodd" d="M64.1779 116.769L61.7333 118.03L61.5076 117.593L63.9518 116.331C64.0644 116.273 64.193 116.254 64.3174 116.277L68.9078 117.106L68.8202 117.591L64.2299 116.761C64.2121 116.758 64.194 116.76 64.1779 116.769Z" fill="#00A3D4" stroke="#00A3D4" stroke-width="3"/>
<path fill-rule="evenodd" clip-rule="evenodd" d="M95.6803 102.404C95.64 102.38 95.5876 102.395 95.5658 102.437L93.6417 106.14L93.2046 105.913L95.129 102.21C95.2809 101.917 95.6471 101.813 95.931 101.98L98.5288 103.516L98.2782 103.939L95.6803 102.404Z" fill="#00A3D4" stroke="#00A3D4" stroke-width="3"/>
<path fill-rule="evenodd" clip-rule="evenodd" d="M124.892 88.9476C124.851 88.9237 124.798 88.9387 124.777 88.9804L122.852 92.6833L122.416 92.4562L124.34 88.7534C124.492 88.4609 124.858 88.3563 125.142 88.5239L127.74 90.0591L127.489 90.4832L124.892 88.9476Z" fill="#00A3D4" stroke="#00A3D4" stroke-width="3"/>
<path fill-rule="evenodd" clip-rule="evenodd" d="M21.0297 86.3914C21.0297 86.3438 20.9916 86.3062 20.9462 86.3086L16.924 86.5377L16.8982 86.0422L20.9203 85.8134C21.2379 85.7953 21.505 86.0593 21.505 86.3914V89.4321H21.0297V86.3914Z" fill="#00A3D4" stroke="#00A3D4" stroke-width="3"/>
<path fill-rule="evenodd" clip-rule="evenodd" d="M47.9786 105.476C47.9786 105.429 47.9376 105.391 47.889 105.393L43.5798 105.622L43.5518 105.127L47.8613 104.898C48.2016 104.88 48.4878 105.144 48.4878 105.476V108.517H47.9786V105.476Z" fill="#00A3D4" stroke="#00A3D4" stroke-width="3"/>
<path fill-rule="evenodd" clip-rule="evenodd" d="M80.9989 109.27C80.9582 109.246 80.9059 109.261 80.8844 109.303L78.9599 113.006L78.5232 112.779L80.4476 109.076C80.5995 108.784 80.9658 108.679 81.2493 108.847L83.8471 110.382L83.5968 110.806L80.9989 109.27Z" fill="#00A3D4" stroke="#00A3D4" stroke-width="3"/>
<path fill-rule="evenodd" clip-rule="evenodd" d="M110.538 95.6493C110.498 95.6253 110.446 95.6404 110.424 95.6821L108.499 99.3849L108.062 99.1578L109.987 95.455C110.139 95.1626 110.505 95.058 110.789 95.2255L113.387 96.7608L113.136 97.1845L110.538 95.6493Z" fill="#00A3D4" stroke="#00A3D4" stroke-width="3"/>
<path fill-rule="evenodd" clip-rule="evenodd" d="M139.75 82.1922C139.709 82.1682 139.656 82.1833 139.635 82.225L137.711 85.9278L137.273 85.7007L139.198 81.9979C139.35 81.7058 139.716 81.6009 140 81.7684L142.598 83.3037L142.347 83.7277L139.75 82.1922Z" fill="#00A3D4" stroke="#00A3D4" stroke-width="3"/>
<path fill-rule="evenodd" clip-rule="evenodd" d="M12.4403 80.4678C12.4403 80.4202 12.3995 80.3826 12.3509 80.3854L8.04141 80.6142L8.01367 80.1189L12.3231 79.8898C12.6634 79.8717 12.9495 80.1357 12.9495 80.4678V83.5085H12.4403V80.4678Z" fill="#00A3D4" stroke="#00A3D4" stroke-width="3"/>
<path fill-rule="evenodd" clip-rule="evenodd" d="M39.4231 99.5532C39.4231 99.5057 39.3824 99.4681 39.3335 99.4705L35.0243 99.6996L34.9966 99.2044L39.3058 98.9752C39.6461 98.9571 39.9323 99.2211 39.9323 99.5532V102.594H39.4231V99.5532Z" fill="#00A3D4" stroke="#00A3D4" stroke-width="3"/>
<path fill-rule="evenodd" clip-rule="evenodd" d="M70.381 114.054C70.3382 114.038 70.2907 114.06 70.2756 114.103L69.0961 117.43L68.6323 117.266L69.8115 113.939C69.9182 113.638 70.2493 113.482 70.5489 113.591L73.9285 114.818L73.7606 115.281L70.381 114.054Z" fill="#00A3D4" stroke="#00A3D4" stroke-width="3"/>
<path fill-rule="evenodd" clip-rule="evenodd" d="M100.661 100.105C100.62 100.081 100.568 100.096 100.546 100.138L98.6219 103.841L98.1848 103.614L100.109 99.9111C100.261 99.6187 100.628 99.514 100.911 99.6816L103.509 101.217L103.259 101.641L100.661 100.105Z" fill="#00A3D4" stroke="#00A3D4" stroke-width="3"/>
<path fill-rule="evenodd" clip-rule="evenodd" d="M129.872 86.6488C129.831 86.6249 129.779 86.6396 129.757 86.6816L127.833 90.3845L127.396 90.1574L129.32 86.4545C129.472 86.1621 129.839 86.0571 130.122 86.2247L132.72 87.7603L132.47 88.184L129.872 86.6488Z" fill="#00A3D4" stroke="#00A3D4" stroke-width="3"/>
<path fill-rule="evenodd" clip-rule="evenodd" d="M25.6027 90.0107C25.6027 89.9632 25.5618 89.9256 25.5132 89.928L21.2037 90.1571L21.176 89.6616L25.4855 89.4328C25.8258 89.4146 26.1118 89.6787 26.1118 90.0107V93.0515H25.6027V90.0107Z" fill="#00A3D4" stroke="#00A3D4" stroke-width="3"/>
<path fill-rule="evenodd" clip-rule="evenodd" d="M52.5852 108.767C52.5852 108.719 52.5445 108.681 52.4959 108.684L48.1864 108.913L48.1587 108.418L52.4679 108.189C52.8082 108.171 53.0944 108.434 53.0944 108.767V111.808H52.5852V108.767Z" fill="#00A3D4" stroke="#00A3D4" stroke-width="3"/>
<path fill-rule="evenodd" clip-rule="evenodd" d="M85.9792 106.972C85.9388 106.947 85.8865 106.962 85.8646 107.004L83.9405 110.707L83.5034 110.48L85.4279 106.777C85.5797 106.485 85.946 106.38 86.2298 106.547L88.8277 108.083L88.577 108.507L85.9792 106.972Z" fill="#00A3D4" stroke="#00A3D4" stroke-width="3"/>
<path fill-rule="evenodd" clip-rule="evenodd" d="M115.518 93.3504C115.478 93.3264 115.426 93.3415 115.404 93.3832L113.48 97.086L113.043 96.859L114.967 93.1561C115.119 92.864 115.485 92.7591 115.769 92.9266L118.367 94.4619L118.116 94.886L115.518 93.3504Z" fill="#00A3D4" stroke="#00A3D4" stroke-width="3"/>
<path fill-rule="evenodd" clip-rule="evenodd" d="M144.73 79.8939C144.689 79.87 144.637 79.8847 144.615 79.9267L142.691 83.6296L142.254 83.4025L144.178 79.6997C144.33 79.4072 144.696 79.3023 144.98 79.4698L147.578 81.0054L147.327 81.4292L144.73 79.8939Z" fill="#00A3D4" stroke="#00A3D4" stroke-width="3"/>
<path fill-rule="evenodd" clip-rule="evenodd" d="M16.7524 83.4292C16.7524 83.382 16.7143 83.344 16.6689 83.3467L12.6467 83.5759L12.6208 83.0803L16.643 82.8512C16.9606 82.8334 17.2277 83.0971 17.2277 83.4292V86.4702H16.7524V83.4292Z" fill="#00A3D4" stroke="#00A3D4" stroke-width="3"/>
<path fill-rule="evenodd" clip-rule="evenodd" d="M43.4055 102.514C43.4055 102.467 43.3676 102.429 43.3221 102.432L39.2998 102.661L39.2742 102.166L43.2961 101.936C43.6138 101.918 43.8809 102.182 43.8809 102.514V105.555H43.4055V102.514Z" fill="#00A3D4" stroke="#00A3D4" stroke-width="3"/>
<path fill-rule="evenodd" clip-rule="evenodd" d="M76.0602 111.498C76.0199 111.474 75.9675 111.489 75.946 111.531L74.0215 115.234L73.5845 115.007L75.5089 111.304C75.6608 111.011 76.027 110.906 76.3109 111.074L78.9087 112.61L78.658 113.033L76.0602 111.498Z" fill="#00A3D4" stroke="#00A3D4" stroke-width="3"/>
<path fill-rule="evenodd" clip-rule="evenodd" d="M105.6 97.8776C105.559 97.8536 105.507 97.8683 105.485 97.9104L103.561 101.613L103.124 101.386L105.048 97.6833C105.2 97.3909 105.566 97.2859 105.85 97.4535L108.448 98.9891L108.197 99.4128L105.6 97.8776Z" fill="#00A3D4" stroke="#00A3D4" stroke-width="3"/>
<path fill-rule="evenodd" clip-rule="evenodd" d="M134.811 84.4203C134.77 84.3963 134.718 84.4114 134.696 84.4531L132.772 88.1559L132.335 87.9288L134.259 84.226C134.411 83.9336 134.778 83.829 135.061 83.9965L137.659 85.5318L137.409 85.9555L134.811 84.4203Z" fill="#00A3D4" stroke="#00A3D4" stroke-width="3"/>
<path fill-rule="evenodd" clip-rule="evenodd" d="M30.2094 92.9719C30.2094 92.9244 30.1685 92.8868 30.1199 92.8892L25.8105 93.1183L25.7827 92.6231L30.0922 92.3939C30.4324 92.3758 30.7186 92.6398 30.7186 92.9719V96.0127H30.2094V92.9719Z" fill="#00A3D4" stroke="#00A3D4" stroke-width="3"/>
<path fill-rule="evenodd" clip-rule="evenodd" d="M56.8967 112.057C56.8967 112.01 56.8588 111.972 56.8133 111.975L52.7914 112.204L52.7654 111.708L56.7876 111.479C57.105 111.461 57.3721 111.725 57.3721 112.057V115.098H56.8967V112.057Z" fill="#00A3D4" stroke="#00A3D4" stroke-width="3"/>
<path fill-rule="evenodd" clip-rule="evenodd" d="M61.4697 115.019C61.4697 114.972 61.429 114.934 61.3805 114.936L57.0709 115.165L57.0432 114.67L61.3528 114.441C61.693 114.423 61.979 114.687 61.979 115.019V118.06H61.4697V115.019Z" fill="#00A3D4" stroke="#00A3D4" stroke-width="3"/>
<path fill-rule="evenodd" clip-rule="evenodd" d="M90.9179 104.743C90.8775 104.719 90.8252 104.734 90.8033 104.776L88.8789 108.479L88.4421 108.252L90.3666 104.549C90.5184 104.256 90.8847 104.151 91.1682 104.319L93.7661 105.854L93.5157 106.278L90.9179 104.743Z" fill="#00A3D4" stroke="#00A3D4" stroke-width="3"/>
<path fill-rule="evenodd" clip-rule="evenodd" d="M120.458 91.1224C120.417 91.0985 120.365 91.1132 120.343 91.1553L118.419 94.8581L117.981 94.631L119.906 90.9282C120.058 90.6358 120.424 90.5308 120.708 90.6984L123.306 92.2339L123.055 92.6577L120.458 91.1224Z" fill="#00A3D4" stroke="#00A3D4" stroke-width="3"/>
<path fill-rule="evenodd" clip-rule="evenodd" d="M149.668 77.6654C149.628 77.6414 149.575 77.6565 149.554 77.6982L147.629 81.4011L147.193 81.174L149.117 77.4711C149.269 77.1787 149.635 77.0741 149.919 77.2416L152.517 78.7769L152.266 79.2006L149.668 77.6654Z" fill="#00A3D4" stroke="#00A3D4" stroke-width="3"/>
<path fill-rule="evenodd" clip-rule="evenodd" d="M154.431 75.3683C154.39 75.3443 154.338 75.3594 154.316 75.4011L152.392 79.1039L151.955 78.8768L153.879 75.174C154.031 74.8816 154.398 74.7769 154.681 74.9445L157.279 76.4798L157.029 76.9038L154.431 75.3683Z" fill="#00A3D4" stroke="#00A3D4" stroke-width="3"/>
<path fill-rule="evenodd" clip-rule="evenodd" d="M159.682 72.9061C159.642 72.8822 159.589 72.8972 159.568 72.9389L157.643 76.6418L157.207 76.4147L159.131 72.7119C159.283 72.4194 159.649 72.3148 159.933 72.4824L162.53 74.0176L162.28 74.4413L159.682 72.9061Z" fill="#00A3D4" stroke="#00A3D4" stroke-width="3"/>
<path fill-rule="evenodd" clip-rule="evenodd" d="M163.844 71.0677C163.8 71.0506 163.751 71.0735 163.736 71.1183L162.616 74.4829L162.149 74.3276L163.269 70.9627C163.373 70.6508 163.717 70.4897 164.023 70.609L167.067 71.7965L166.888 72.2551L163.844 71.0677Z" fill="#00A3D4" stroke="#00A3D4" stroke-width="3"/>
<path fill-rule="evenodd" clip-rule="evenodd" d="M63.9534 119.705V116.414H64.2824V119.705H63.9534Z" fill="#00A3D4" stroke="#00A3D4" stroke-width="3"/>
</g>
<defs>
<clipPath id="clip0_67_27">
<rect width="171" height="171" fill="white"/>
</clipPath>
</defs>
</svg>
