<svg width="171" height="171" viewBox="0 0 171 171" fill="none" xmlns="http://www.w3.org/2000/svg">
<g clip-path="url(#clip0_67_93)">
<path d="M103.579 34.1199L78.7684 23.9399L1.50286 39.1449C1.20268 39.2037 1.12515 39.597 1.38046 39.7657L24.1478 54.7976M103.579 34.1199L133.004 39.8789M103.579 34.1199L78.7684 40.5786M24.1478 54.7976L22.4169 55.248M24.1478 54.7976L59.3435 45.6354M133.004 39.8789L170.316 47.1809M133.004 39.8789L108.002 47.724M78.7684 40.5786L59.3435 45.6354M78.7684 40.5786L108.002 47.724M170.316 47.1809L163.777 98.273L90.116 147.06M170.316 47.1809L91.4621 79.8522M90.116 147.06V80.41M90.116 147.06L83.3844 142.972M91.4621 79.8522L90.116 80.41M91.4621 79.8522L53.722 65.3955C53.4194 65.2795 53.4327 64.8469 53.7419 64.7498L88.0004 54.0004M90.116 80.41L22.4169 55.248M83.3844 142.972L58.1879 133.146C57.9044 133.035 57.8955 132.637 58.1742 132.514L62.8056 130.473M83.3844 142.972L62.8056 130.473M22.4169 55.248L28.7637 109.797L35.4952 113.886M35.4952 113.886L56.0791 131.724C56.1909 131.82 56.352 131.835 56.4789 131.759L60.113 129.581M35.4952 113.886L62.8056 130.473M59.3435 45.6354L88.0004 54.0004M88.0004 54.0004L108.002 47.724" stroke="#00A3D4" stroke-width="3"/>
</g>
<defs>
<clipPath id="clip0_67_93">
<rect width="171" height="171" fill="white"/>
</clipPath>
</defs>
</svg>
