<svg width="171" height="171" viewBox="0 0 171 171" fill="none" xmlns="http://www.w3.org/2000/svg">
<path fill-rule="evenodd" clip-rule="evenodd" d="M56.5285 5.12988H58.8319L113.322 12.3655L117.323 29.7154L122.574 83.6346L119.052 152.912L65.2646 165.87L48.222 154.499V83.6302L56.5285 6.54542V5.12988ZM56.8343 5.43498V6.5618L48.6605 82.4157L62.7991 43.8552C61.6626 31.4135 60.3275 19.7773 59.3145 10.9466C59.0864 8.95977 58.8747 7.11499 58.6852 5.43498H56.8343ZM59.1366 6.70414C59.2864 8.02054 59.4475 9.42588 59.6178 10.9107C60.6322 19.7495 61.9691 31.4031 63.1069 43.8617C64.4017 58.0417 65.4383 73.2683 65.4469 86.5789L122.253 83.4944L118.612 46.1032L118.422 47.7913C118.214 49.6367 116.875 51.1569 115.068 51.5998L115.032 51.4517V51.6043H74.8166L74.161 51.5434C69.9367 51.1501 66.4647 48.0516 65.6028 43.9065L65.6015 43.8993L65.6004 43.8918C64.1613 30.5854 61.5949 14.5475 59.1366 6.70414ZM115.013 51.2992C116.687 50.8813 117.926 49.4695 118.118 47.7571L118.469 44.637L117.021 29.7646L113.072 12.64L59.0494 5.46651C61.6312 12.8379 64.3911 29.8702 65.9038 43.8518C66.7407 47.8621 70.1015 50.859 74.1894 51.2397L74.8307 51.2992H115.013ZM122.26 83.7998L65.4469 86.8843V165.512L118.758 152.669L122.26 83.7998ZM65.1411 165.42V86.8669L48.5278 83.8213V154.336L65.1411 165.42ZM48.5808 83.5207L65.1411 86.5567C65.1315 73.4765 64.1288 58.5417 62.8637 44.5669L48.5808 83.5207Z" fill="#00A3D4" stroke="#00A3D4" stroke-width="3"/>
<path d="M97.2867 40.5305L97.4136 41.2254C97.4368 41.3533 97.3366 41.4939 97.1718 41.4939H88.3913C88.378 41.4939 88.3691 41.4891 88.3629 41.4833C88.3598 41.4802 88.3585 41.4775 88.3574 41.4757C88.3571 41.4744 88.3564 41.473 88.3564 41.4703V39.4833C88.3564 37.3649 90.1122 35.6303 92.3 35.6303C92.6441 35.6303 92.984 35.6997 93.2987 35.8345L93.6112 35.9682C95.5418 36.7944 96.918 38.5079 97.2867 40.5305ZM92.3 34.3047C89.3964 34.3047 87.0247 36.6132 87.0247 39.4833V41.4703C87.0247 42.2251 87.6464 42.8195 88.3913 42.8195H97.1718C98.1417 42.8195 98.8999 41.9552 98.7238 40.9887L98.5973 40.2938C98.1475 37.8273 96.4714 35.7493 94.1372 34.7503L93.8246 34.6166C93.3435 34.4107 92.8243 34.3047 92.3 34.3047Z" fill="#00A3D4" stroke="#00A3D4" stroke-width="3"/>
<path d="M98.4358 27.0512H82.7886C81.1282 27.0512 79.7968 25.7303 79.7968 24.1194C79.7968 22.5085 81.1282 21.1876 82.7886 21.1876H98.4358C99.761 21.1876 100.922 22.0408 101.301 23.2753C101.874 25.145 100.453 27.0512 98.4358 27.0512ZM82.7886 28.3768H98.4358C101.322 28.3768 103.416 25.6329 102.573 22.8879C102.021 21.0865 100.336 19.8621 98.4358 19.8621H82.7886C80.41 19.8621 78.4661 21.7598 78.4661 24.1194C78.4661 26.479 80.41 28.3768 82.7886 28.3768Z" fill="#00A3D4" stroke="#00A3D4" stroke-width="3"/>
</svg>
