<svg width="18" height="18" viewBox="0 0 18 18" fill="none" xmlns="http://www.w3.org/2000/svg">
<path d="M8.57352 0.65409C8.68968 0.537933 8.79611 0.500101 8.90981 0.500101C9.02333 0.500163 9.12946 0.537554 9.24541 0.6534C9.36152 0.769509 9.39937 0.876035 9.3994 0.98969V8.41984H9.89935L16.8289 8.41914C16.9425 8.41914 17.049 8.45709 17.1651 8.57313C17.2813 8.68929 17.3191 8.79572 17.3191 8.90942C17.3191 9.02313 17.2813 9.12956 17.1651 9.24571C17.049 9.36176 16.9425 9.3997 16.8289 9.3997L9.89935 9.39901H9.3994V16.8292C9.39937 16.9428 9.36152 17.0493 9.24541 17.1654C9.12946 17.2813 9.02333 17.3187 8.90981 17.3187C8.79611 17.3187 8.68968 17.2809 8.57352 17.1648C8.45748 17.0487 8.41954 16.9421 8.41954 16.8285V9.3997H7.91959L0.99008 9.39901C0.876374 9.39901 0.769947 9.36118 0.65379 9.24502C0.53785 9.12897 0.500492 9.02304 0.500492 8.90942C0.500492 8.79581 0.53785 8.68987 0.65379 8.57382C0.769947 8.45767 0.876374 8.41984 0.99008 8.41984L7.91959 8.41914H8.41954V0.99038C8.41954 0.876719 8.45748 0.770193 8.57352 0.65409Z" fill="#0C0A04" stroke="#0C0A04"/>
</svg>
