<svg width="251" height="31" viewBox="0 0 251 31" fill="none" xmlns="http://www.w3.org/2000/svg">
<g clip-path="url(#clip0_39_115)">
<path d="M73.8004 13.347L73.8213 13.4245H67.1215L67.1448 13.3667C67.082 13.1336 67.0369 12.9655 67.009 12.8623C66.8626 12.3198 66.4493 11.9322 65.7769 11.6991C65.1047 11.4666 64.0655 11.3503 62.667 11.3503C60.7798 11.3503 59.5663 11.5638 59.0144 11.9901C58.5569 12.3651 58.3416 13.1592 58.3607 14.3737L58.4383 16.7776C58.4374 17.3451 58.4881 17.8173 58.5895 18.1923C58.7531 18.7993 59.1418 19.216 59.7541 19.4426C60.3679 19.6685 61.4307 19.7812 62.9455 19.7812C64.6137 19.7812 65.7621 19.6107 66.3883 19.2679C67.0146 18.9251 67.3117 18.3152 67.2796 17.4364H74.1342C74.177 19.3096 73.4466 20.6695 71.9421 21.5162C70.4384 22.3622 67.9147 22.7855 64.3723 22.7855H61.831C58.5197 22.7855 56.0816 22.479 54.5166 21.8649C52.9525 21.2508 51.9724 20.214 51.5786 18.754C51.4429 18.2508 51.3685 17.688 51.3545 17.0679L51.2764 14.0637C51.2211 11.9579 51.9385 10.4787 53.4282 9.62493C54.9178 8.77237 57.588 8.34668 61.439 8.34668H63.5183C66.8296 8.34668 69.2593 8.62094 70.8057 9.17063C72.3535 9.71973 73.3062 10.6593 73.6651 11.9901C73.7316 12.2357 73.7716 12.433 73.7804 12.5815C73.7883 12.73 73.7934 12.9845 73.8004 13.347Z" fill="white"/>
<path d="M101.011 22.6116H93.8107L92.4708 20.0723H83.0367L81.8358 22.6116H74.6348L82.0771 8.521H93.0115L101.011 22.6116ZM91.2847 17.5337L88.1683 11.118H87.0515L84.1614 17.5337H91.2847Z" fill="white"/>
<path d="M124.475 12.2812L124.524 13.4629C124.561 15.3105 122.889 16.3443 119.508 16.5643L119.478 16.7384C121.027 16.8678 122.226 17.1456 123.072 17.5725C123.919 17.9982 124.438 18.5675 124.63 19.2776C124.655 19.3682 124.68 19.4654 124.708 19.5686C124.736 19.6717 124.759 19.7552 124.776 19.8202L124.83 22.6116H117.867V20.188C117.839 20.0849 117.81 19.9752 117.779 19.8589C117.747 19.7427 117.726 19.6652 117.715 19.6264C117.587 19.1482 117.261 18.8215 116.739 18.6474C116.218 18.4733 115.354 18.3857 114.147 18.3857H109.603L109.704 22.6116H102.965L102.59 8.521H113.487C117.107 8.521 119.685 8.70821 121.225 9.08322C123.011 9.52262 124.059 10.3102 124.365 11.4477C124.435 11.7059 124.471 11.9837 124.475 12.2812ZM117.74 13.1529C117.723 13.0885 117.701 13.0044 117.672 12.9007C117.645 12.7981 117.617 12.695 117.589 12.5906C117.464 12.1262 117.132 11.8031 116.596 11.6224C116.059 11.4412 115.188 11.3505 113.981 11.3505H109.399L109.522 15.5174H114.142C115.542 15.5174 116.491 15.3946 116.995 15.1495C117.501 14.9045 117.751 14.4263 117.738 13.7157L117.74 13.1529Z" fill="white"/>
<path d="M147.209 8.521L147.28 11.3505H140.117L140.422 22.6116H133.606L133.302 11.3505H126.102L126.031 8.521H147.209Z" fill="white"/>
<path d="M172.991 14.0637L173.071 17.0679C173.126 19.1743 172.408 20.654 170.918 21.5066C169.429 22.3592 166.745 22.7855 162.869 22.7855H159.173C155.861 22.7855 153.423 22.479 151.859 21.8649C150.294 21.2508 149.314 20.214 148.92 18.754C148.785 18.2508 148.71 17.688 148.696 17.0679L148.618 14.0637C148.563 11.9579 149.28 10.4787 150.77 9.62493C152.26 8.77237 154.93 8.34668 158.781 8.34668H162.477C165.763 8.34668 168.201 8.65313 169.791 9.26722C171.382 9.88011 172.372 10.9115 172.763 12.3579C172.902 12.8748 172.978 13.4442 172.991 14.0637ZM166.106 14.3737C166.071 13.9599 166.049 13.6666 166.041 13.4925C166.033 13.3184 166.006 13.1467 165.96 12.978C165.79 12.3454 165.385 11.9155 164.747 11.6902C164.107 11.4636 162.992 11.3503 161.401 11.3503H160.015C158.038 11.3503 156.787 11.5411 156.26 11.9221C155.735 12.3037 155.486 13.1211 155.517 14.3737L155.588 16.7776C155.587 17.3451 155.638 17.8173 155.739 18.1923C155.903 18.7993 156.303 19.216 156.942 19.4426C157.581 19.6685 158.683 19.7812 160.248 19.7812H161.635C163.638 19.7812 164.902 19.591 165.427 19.2095C165.954 18.8285 166.204 18.0171 166.176 16.7776L166.106 14.3737Z" fill="white"/>
<path d="M245.49 16.9856L251 22.6114H243.251L241.831 20.942L245.49 16.9856Z" fill="#00A3D4"/>
<path d="M250.008 8.50415L244.907 14.0828L240.265 19.1022L238.282 16.7711L233.344 22.6115H225.71L232.714 15.2764L226.337 8.50415H233.893L238.296 13.8217L242.413 8.50415H250.008Z" fill="white"/>
<path d="M197.752 11.6796L197.777 12.63C197.845 14.1157 196.425 14.9427 193.518 15.1108L193.526 15.2849C194.951 15.4274 196.077 15.7249 196.906 16.1762C197.733 16.6287 198.238 17.1909 198.419 17.8628C198.465 18.031 198.5 18.1603 198.524 18.251L198.523 19.1029C198.559 20.473 197.824 21.409 196.31 21.9134C194.92 22.3785 192.436 22.6116 188.861 22.6116H176.25L175.876 8.521H188.66C191.612 8.521 193.786 8.70464 195.181 9.07309C196.578 9.44094 197.402 10.0973 197.657 11.0405L197.719 11.273C197.744 11.3637 197.755 11.4996 197.752 11.6796ZM191.008 12.5137C191.019 12.4613 191.018 12.41 191.004 12.3581C190.99 12.3068 190.979 12.2681 190.973 12.2419C190.885 11.9187 190.637 11.6862 190.226 11.5443C189.816 11.4024 189.187 11.3315 188.34 11.3315H182.641L182.748 14.297H188.447C190.192 14.297 191.047 13.8957 191.01 13.0944L191.008 12.5137ZM191.62 17.9213C191.602 17.8569 191.578 17.7662 191.547 17.6494C191.369 16.9906 190.445 16.6615 188.777 16.6615H182.809L182.881 19.7814H188.874C190.729 19.7814 191.649 19.3617 191.628 18.5216L191.62 17.9213Z" fill="#00A3D4"/>
<path d="M224.916 14.0637L224.994 17.0679C225.049 19.1743 224.332 20.654 222.842 21.5066C221.352 22.3592 218.669 22.7855 214.792 22.7855H211.096C207.785 22.7855 205.347 22.479 203.782 21.8649C202.218 21.2508 201.238 20.214 200.844 18.754C200.708 18.2508 200.634 17.688 200.62 17.0679L200.542 14.0637C200.487 11.9579 201.204 10.4787 202.694 9.62493C204.183 8.77237 206.854 8.34668 210.705 8.34668H214.401C217.687 8.34668 220.125 8.65313 221.715 9.26722C223.306 9.88011 224.296 10.9115 224.686 12.3579C224.826 12.8748 224.901 13.4442 224.916 14.0637ZM218.03 14.3737C217.995 13.9599 217.973 13.6666 217.965 13.4925C217.957 13.3184 217.93 13.1467 217.884 12.978C217.714 12.3454 217.309 11.9155 216.67 11.6902C216.031 11.4636 214.916 11.3503 213.324 11.3503H211.939C209.962 11.3503 208.71 11.5411 208.185 11.9221C207.659 12.3037 207.41 13.1211 207.441 14.3737L207.512 16.7776C207.511 17.3451 207.562 17.8173 207.663 18.1923C207.827 18.7993 208.227 19.216 208.865 19.4426C209.505 19.6685 210.607 19.7812 212.173 19.7812H213.559C215.561 19.7812 216.826 19.591 217.352 19.2095C217.878 18.8285 218.127 18.0171 218.101 16.7776L218.03 14.3737Z" fill="#00A3D4"/>
<path fill-rule="evenodd" clip-rule="evenodd" d="M27.7358 31.0024C20.7871 29.554 13.8928 29.5995 7.04785 31.0024C13.9438 31.0024 20.8397 31.0024 27.7358 31.0024Z" fill="#00A3D4"/>
<path fill-rule="evenodd" clip-rule="evenodd" d="M28.2803 31.0024C30.6994 26.1054 33.8203 22.6129 38.0023 21.2417C34.7617 24.4954 31.5209 27.7487 28.2803 31.0024Z" fill="#00A3D4"/>
<path fill-rule="evenodd" clip-rule="evenodd" d="M42.0853 5.92026C34.8455 5.02392 27.3457 5.08004 19.7939 5.32737C27.2244 5.5249 34.6549 5.72258 42.0853 5.92026Z" fill="#00A3D4"/>
<path fill-rule="evenodd" clip-rule="evenodd" d="M21.3105 9.91591C23.6486 6.16526 26.6453 2.71335 31.2658 0C27.9473 3.30531 24.6289 6.61061 21.3105 9.91591Z" fill="#00A3D4"/>
<path fill-rule="evenodd" clip-rule="evenodd" d="M28.4525 17.2528C27.0428 13.9092 24.6383 11.6433 21.5693 10.0974C23.8639 12.4825 26.158 14.8677 28.4525 17.2528Z" fill="#00A3D4"/>
<path fill-rule="evenodd" clip-rule="evenodd" d="M28.582 16.9937C32.6788 14.3765 36.2184 11.3163 38.0318 6.88306C34.8819 10.2531 31.7319 13.6233 28.582 16.9937Z" fill="#00A3D4"/>
<path fill-rule="evenodd" clip-rule="evenodd" d="M31.2656 0C34.6518 1.50525 36.875 3.82199 38.0319 6.88294C35.7764 4.58837 33.5208 2.29426 31.2656 0Z" fill="#00A3D4"/>
<path fill-rule="evenodd" clip-rule="evenodd" d="M16.8379 6.80518C23.7515 7.58366 30.858 7.40121 38.0314 6.88296C30.9668 6.85671 23.9023 6.83094 16.8379 6.80518Z" fill="#00A3D4"/>
<path fill-rule="evenodd" clip-rule="evenodd" d="M9.68262 10.9658C15.8715 12.2092 22.1596 12.0299 28.504 11.0434C22.2304 11.0176 15.9565 10.9915 9.68262 10.9658Z" fill="#00A3D4"/>
<path fill-rule="evenodd" clip-rule="evenodd" d="M16.5663 7.15479C12.6059 9.69608 9.48177 13.2325 6.61133 17.0713C9.92971 13.7657 13.2481 10.4604 16.5663 7.15479Z" fill="#00A3D4"/>
<path fill-rule="evenodd" clip-rule="evenodd" d="M6.61133 17.0714C13.7424 18.1989 21.166 18.1211 28.1935 17.0714C20.9994 17.0714 13.8054 17.0714 6.61133 17.0714C7.92575 15.3716 9.14102 13.616 9.25568 11.2383C8.42951 13.0602 7.43726 15.249 6.61133 17.0714Z" fill="#00A3D4"/>
<path fill-rule="evenodd" clip-rule="evenodd" d="M6.61093 17.0713C5.47085 14.1777 3.42143 11.863 0 10.4214C2.20358 12.6382 4.40733 14.8543 6.61093 17.0713Z" fill="#00A3D4"/>
<path fill-rule="evenodd" clip-rule="evenodd" d="M10.2666 0.699707C13.1399 2.20967 15.3135 4.25817 16.8387 6.80527C14.6479 4.76997 12.4572 2.73499 10.2666 0.699707Z" fill="#00A3D4"/>
<path fill-rule="evenodd" clip-rule="evenodd" d="M38.0322 6.88306C36.806 12.2626 37.1832 16.7476 38.1877 20.8825C38.136 16.2157 38.084 11.5494 38.0322 6.88306Z" fill="#00A3D4"/>
<path fill-rule="evenodd" clip-rule="evenodd" d="M0.311523 10.3049C2.43716 5.92223 5.71056 2.74248 10.0139 0.641357C6.77961 3.86259 3.54564 7.08366 0.311523 10.3049Z" fill="#00A3D4"/>
<path fill-rule="evenodd" clip-rule="evenodd" d="M19.5796 5.44409C18.4431 5.57059 17.6788 6.04766 17.1299 6.72729C17.9466 6.29956 18.7631 5.87166 19.5796 5.44409Z" fill="#00A3D4"/>
<path fill-rule="evenodd" clip-rule="evenodd" d="M6.61089 17.0713C8.05046 21.5631 8.14839 26.1475 6.58105 30.8468C6.5911 26.2549 6.60099 21.6632 6.61089 17.0713Z" fill="#00A3D4"/>
<path fill-rule="evenodd" clip-rule="evenodd" d="M28.2407 17.5088C28.2398 17.5866 28.239 17.6644 28.2382 17.742C26.8082 22.5161 26.9226 26.734 28.0851 30.5749C28.1371 26.2196 28.1891 21.864 28.2407 17.5088Z" fill="#00A3D4"/>
<path fill-rule="evenodd" clip-rule="evenodd" d="M38.0322 6.8828C39.0663 6.29653 39.749 5.41746 42.0855 5.92016C40.7344 6.24089 39.3833 6.56177 38.0322 6.8828Z" fill="#00A3D4"/>
<path fill-rule="evenodd" clip-rule="evenodd" d="M16.5658 7.15479C16.2049 8.81734 16.2849 10.4801 16.6154 12.1421C16.5988 10.4801 16.5825 8.81734 16.5658 7.15479Z" fill="#00A3D4"/>
</g>
<defs>
<clipPath id="clip0_39_115">
<rect width="251" height="31" fill="white"/>
</clipPath>
</defs>
</svg>
