<svg width="251" height="31" viewBox="0 0 251 31" fill="none" xmlns="http://www.w3.org/2000/svg">
<path d="M73.8001 13.3471L73.821 13.4246H67.1212L67.1445 13.3668C67.0817 13.1337 67.0366 12.9656 67.0087 12.8624C66.8623 12.3199 66.449 11.9323 65.7766 11.6992C65.1044 11.4667 64.0652 11.3504 62.6667 11.3504C60.7795 11.3504 59.566 11.5639 59.0141 11.9902C58.5566 12.3652 58.3413 13.1593 58.3604 14.3738L58.438 16.7777C58.4371 17.3452 58.4878 17.8174 58.5892 18.1924C58.7528 18.7994 59.1415 19.2161 59.7538 19.4427C60.3676 19.6686 61.4304 19.7813 62.9452 19.7813C64.6134 19.7813 65.7618 19.6108 66.388 19.268C67.0143 18.9252 67.3114 18.3153 67.2793 17.4365H74.1339C74.1767 19.3097 73.4463 20.6696 71.9418 21.5163C70.4381 22.3623 67.9144 22.7856 64.372 22.7856H61.8307C58.5194 22.7856 56.0813 22.4791 54.5163 21.865C52.9522 21.2509 51.9721 20.2141 51.5783 18.7541C51.4426 18.2509 51.3682 17.6881 51.3542 17.068L51.2761 14.0638C51.2208 11.958 51.9382 10.4788 53.4279 9.62504C54.9175 8.77248 57.5877 8.34679 61.4387 8.34679H63.518C66.8293 8.34679 69.259 8.62105 70.8054 9.17074C72.3532 9.71984 73.3059 10.6594 73.6648 11.9902C73.7313 12.2358 73.7713 12.4331 73.7801 12.5816C73.788 12.7301 73.7931 12.9846 73.8001 13.3471Z" fill="black"/>
<path d="M101.011 22.6115H93.8106L92.4707 20.0722H83.0366L81.8357 22.6115H74.6347L82.077 8.52088H93.0114L101.011 22.6115ZM91.2846 17.5336L88.1682 11.1179H87.0514L84.1613 17.5336H91.2846Z" fill="black"/>
<path d="M124.475 12.2811L124.524 13.4628C124.561 15.3104 122.889 16.3442 119.508 16.5642L119.478 16.7383C121.027 16.8677 122.226 17.1455 123.072 17.5724C123.919 17.9981 124.438 18.5674 124.63 19.2775C124.655 19.3681 124.68 19.4653 124.708 19.5685C124.736 19.6716 124.759 19.7551 124.776 19.8201L124.83 22.6115H117.867L117.867 20.1879C117.839 20.0848 117.81 19.9751 117.779 19.8588C117.747 19.7426 117.726 19.6651 117.715 19.6263C117.587 19.1481 117.261 18.8214 116.739 18.6473C116.218 18.4732 115.354 18.3856 114.147 18.3856H109.603L109.704 22.6115H102.965L102.59 8.52088H113.487C117.107 8.52088 119.685 8.70809 121.225 9.0831C123.011 9.5225 124.059 10.3101 124.365 11.4476C124.435 11.7058 124.471 11.9836 124.475 12.2811ZM117.74 13.1528C117.723 13.0884 117.701 13.0043 117.672 12.9006C117.645 12.798 117.617 12.6949 117.589 12.5905C117.464 12.1261 117.132 11.803 116.596 11.6223C116.059 11.4411 115.188 11.3504 113.981 11.3504H109.399L109.522 15.5173H114.142C115.542 15.5173 116.491 15.3945 116.995 15.1494C117.501 14.9044 117.751 14.4262 117.738 13.7156L117.74 13.1528Z" fill="black"/>
<path d="M147.209 8.52088L147.28 11.3504H140.117L140.422 22.6115H133.606L133.302 11.3504H126.102L126.031 8.52088H147.209Z" fill="black"/>
<path d="M172.991 14.0638L173.071 17.068C173.126 19.1744 172.408 20.6541 170.918 21.5067C169.429 22.3593 166.745 22.7856 162.869 22.7856H159.173C155.861 22.7856 153.423 22.4791 151.859 21.865C150.294 21.2509 149.314 20.2141 148.92 18.7541C148.785 18.2509 148.71 17.6881 148.696 17.068L148.618 14.0638C148.563 11.958 149.28 10.4788 150.77 9.62504C152.26 8.77248 154.93 8.34679 158.781 8.34679H162.477C165.763 8.34679 168.201 8.65324 169.791 9.26733C171.382 9.88022 172.372 10.9116 172.763 12.358C172.902 12.8749 172.978 13.4443 172.991 14.0638ZM166.106 14.3738C166.071 13.96 166.049 13.6667 166.041 13.4926C166.033 13.3185 166.006 13.1468 165.96 12.9781C165.79 12.3455 165.385 11.9156 164.747 11.6903C164.107 11.4637 162.992 11.3504 161.401 11.3504H160.015C158.038 11.3504 156.787 11.5412 156.26 11.9222C155.735 12.3038 155.486 13.1212 155.517 14.3738L155.588 16.7777C155.587 17.3452 155.638 17.8174 155.739 18.1924C155.903 18.7994 156.303 19.2161 156.942 19.4427C157.581 19.6686 158.683 19.7813 160.248 19.7813H161.635C163.638 19.7813 164.902 19.5911 165.427 19.2096C165.954 18.8286 166.204 18.0172 166.176 16.7777L166.106 14.3738Z" fill="black"/>
<path d="M245.49 16.9857L251 22.6115H243.251L241.831 20.9421L245.49 16.9857Z" fill="#00A3D4"/>
<path d="M250.008 8.50418L244.907 14.0828L240.265 19.1022L238.282 16.7711L233.344 22.6115H225.71L232.714 15.2764L226.337 8.50418H233.893L238.296 13.8217L242.413 8.50418H250.008Z" fill="black"/>
<path d="M197.752 11.6795L197.777 12.6299C197.845 14.1156 196.425 14.9426 193.518 15.1107L193.526 15.2848C194.951 15.4273 196.077 15.7248 196.906 16.1761C197.733 16.6286 198.238 17.1908 198.419 17.8627C198.465 18.0309 198.5 18.1602 198.524 18.2509L198.523 19.1028C198.559 20.4729 197.824 21.4089 196.31 21.9133C194.92 22.3784 192.436 22.6115 188.861 22.6115H176.25L175.876 8.52088H188.66C191.612 8.52088 193.786 8.70452 195.181 9.07297C196.578 9.44082 197.402 10.0972 197.657 11.0404L197.719 11.2729C197.744 11.3636 197.755 11.4995 197.752 11.6795ZM191.008 12.5136C191.019 12.4612 191.018 12.4099 191.004 12.358C190.99 12.3067 190.979 12.268 190.973 12.2418C190.885 11.9186 190.637 11.6861 190.226 11.5442C189.816 11.4023 189.187 11.3314 188.34 11.3314H182.641L182.748 14.2969H188.447C190.192 14.2969 191.047 13.8956 191.01 13.0943L191.008 12.5136ZM191.62 17.9212C191.602 17.8568 191.578 17.7661 191.547 17.6493C191.369 16.9905 190.445 16.6614 188.777 16.6614H182.809L182.881 19.7813H188.874C190.729 19.7813 191.649 19.3616 191.628 18.5215L191.62 17.9212Z" fill="#00A3D4"/>
<path d="M224.916 14.0638L224.994 17.068C225.049 19.1744 224.332 20.6541 222.842 21.5067C221.352 22.3593 218.669 22.7856 214.792 22.7856H211.096C207.785 22.7856 205.347 22.4791 203.782 21.865C202.218 21.2509 201.238 20.2141 200.844 18.7541C200.708 18.2509 200.634 17.6881 200.62 17.068L200.542 14.0638C200.487 11.958 201.204 10.4788 202.694 9.62504C204.183 8.77248 206.854 8.34679 210.705 8.34679H214.401C217.687 8.34679 220.125 8.65324 221.715 9.26733C223.306 9.88022 224.296 10.9116 224.686 12.358C224.826 12.8749 224.901 13.4443 224.916 14.0638ZM218.03 14.3738C217.995 13.96 217.973 13.6667 217.965 13.4926C217.957 13.3185 217.93 13.1468 217.884 12.9781C217.714 12.3455 217.309 11.9156 216.67 11.6903C216.031 11.4637 214.916 11.3504 213.324 11.3504H211.939C209.962 11.3504 208.71 11.5412 208.185 11.9222C207.659 12.3038 207.41 13.1212 207.441 14.3738L207.512 16.7777C207.511 17.3452 207.562 17.8174 207.663 18.1924C207.827 18.7994 208.227 19.2161 208.865 19.4427C209.505 19.6686 210.607 19.7813 212.173 19.7813H213.559C215.561 19.7813 216.826 19.5911 217.352 19.2096C217.878 18.8286 218.127 18.0172 218.101 16.7777L218.03 14.3738Z" fill="#00A3D4"/>
<path fill-rule="evenodd" clip-rule="evenodd" d="M27.7357 31.0024C20.787 29.554 13.8927 29.5995 7.04778 31.0024C13.9437 31.0024 20.8396 31.0024 27.7357 31.0024Z" fill="#00A3D4"/>
<path fill-rule="evenodd" clip-rule="evenodd" d="M28.2799 31.0024C30.699 26.1054 33.8199 22.6129 38.0019 21.2417C34.7613 24.4954 31.5205 27.7487 28.2799 31.0024Z" fill="#00A3D4"/>
<path fill-rule="evenodd" clip-rule="evenodd" d="M42.085 5.9202C34.8452 5.02386 27.3454 5.07998 19.7936 5.32731C27.2241 5.52484 34.6546 5.72252 42.085 5.9202Z" fill="#00A3D4"/>
<path fill-rule="evenodd" clip-rule="evenodd" d="M21.3101 9.91591C23.6482 6.16526 26.6449 2.71335 31.2654 0C27.9469 3.30531 24.6285 6.61061 21.3101 9.91591Z" fill="#00A3D4"/>
<path fill-rule="evenodd" clip-rule="evenodd" d="M28.4526 17.2527C27.0429 13.9091 24.6384 11.6432 21.5694 10.0973C23.864 12.4824 26.1581 14.8676 28.4526 17.2527Z" fill="#00A3D4"/>
<path fill-rule="evenodd" clip-rule="evenodd" d="M28.582 16.9936C32.6788 14.3764 36.2184 11.3162 38.0318 6.88295C34.8819 10.253 31.7319 13.6232 28.582 16.9936Z" fill="#00A3D4"/>
<path fill-rule="evenodd" clip-rule="evenodd" d="M31.2655 0C34.6517 1.50525 36.8749 3.82199 38.0318 6.88294C35.7763 4.58837 33.5207 2.29426 31.2655 0Z" fill="#00A3D4"/>
<path fill-rule="evenodd" clip-rule="evenodd" d="M16.8383 6.80522C23.7519 7.5837 30.8584 7.40125 38.0318 6.883C30.9672 6.85675 23.9027 6.83098 16.8383 6.80522Z" fill="#00A3D4"/>
<path fill-rule="evenodd" clip-rule="evenodd" d="M9.68286 10.9659C15.8717 12.2093 22.1598 12.03 28.5042 11.0435C22.2306 11.0177 15.9567 10.9916 9.68286 10.9659Z" fill="#00A3D4"/>
<path fill-rule="evenodd" clip-rule="evenodd" d="M16.5659 7.15469C12.6055 9.69598 9.48136 13.2324 6.61092 17.0712C9.9293 13.7656 13.2477 10.4603 16.5659 7.15469Z" fill="#00A3D4"/>
<path fill-rule="evenodd" clip-rule="evenodd" d="M6.61092 17.0714C13.742 18.1989 21.1656 18.1211 28.1931 17.0714C20.999 17.0714 13.805 17.0714 6.61092 17.0714C7.92534 15.3716 9.14061 13.616 9.25527 11.2383C8.4291 13.0602 7.43685 15.249 6.61092 17.0714Z" fill="#00A3D4"/>
<path fill-rule="evenodd" clip-rule="evenodd" d="M6.61093 17.0713C5.47085 14.1777 3.42143 11.863 0 10.4214C2.20358 12.6382 4.40733 14.8543 6.61093 17.0713Z" fill="#00A3D4"/>
<path fill-rule="evenodd" clip-rule="evenodd" d="M10.2662 0.699654C13.1395 2.20962 15.3131 4.25812 16.8383 6.80522C14.6475 4.76992 12.4568 2.73494 10.2662 0.699654Z" fill="#00A3D4"/>
<path fill-rule="evenodd" clip-rule="evenodd" d="M38.0318 6.88295C36.8056 12.2625 37.1828 16.7475 38.1873 20.8824C38.1356 16.2156 38.0836 11.5493 38.0318 6.88295Z" fill="#00A3D4"/>
<path fill-rule="evenodd" clip-rule="evenodd" d="M0.311127 10.3048C2.43676 5.92218 5.71016 2.74243 10.0135 0.641304C6.77921 3.86254 3.54524 7.08361 0.311127 10.3048Z" fill="#00A3D4"/>
<path fill-rule="evenodd" clip-rule="evenodd" d="M19.5794 5.44398C18.4429 5.57048 17.6786 6.04755 17.1297 6.72718C17.9464 6.29945 18.7629 5.87155 19.5794 5.44398Z" fill="#00A3D4"/>
<path fill-rule="evenodd" clip-rule="evenodd" d="M6.61089 17.0713C8.05046 21.5631 8.14839 26.1475 6.58105 30.8468C6.5911 26.2549 6.60099 21.6632 6.61089 17.0713Z" fill="#00A3D4"/>
<path fill-rule="evenodd" clip-rule="evenodd" d="M28.2411 17.5087C28.2402 17.5865 28.2394 17.6643 28.2386 17.7419C26.8086 22.516 26.923 26.7339 28.0855 30.5748C28.1375 26.2195 28.1895 21.8639 28.2411 17.5087Z" fill="#00A3D4"/>
<path fill-rule="evenodd" clip-rule="evenodd" d="M38.0318 6.88288C39.0659 6.29661 39.7486 5.41754 42.0851 5.92024C40.734 6.24097 39.3829 6.56185 38.0318 6.88288Z" fill="#00A3D4"/>
<path fill-rule="evenodd" clip-rule="evenodd" d="M16.5659 7.15469C16.205 8.81724 16.285 10.48 16.6155 12.142C16.5989 10.48 16.5826 8.81724 16.5659 7.15469Z" fill="#00A3D4"/>
</svg>
