<svg width="215" height="132" viewBox="0 0 215 132" fill="none" xmlns="http://www.w3.org/2000/svg">
<g clip-path="url(#clip0_16_299)">
<path d="M24.2496 121.257L24.2722 121.341H17.06L17.0851 121.279C17.0175 121.027 16.969 120.845 16.9389 120.734C16.7813 120.148 16.3363 119.729 15.6126 119.478C14.8889 119.226 13.7703 119.101 12.2648 119.101C10.2333 119.101 8.92699 119.331 8.33295 119.792C7.84044 120.197 7.60869 121.055 7.62923 122.366L7.71279 124.962C7.71182 125.575 7.76638 126.085 7.87548 126.49C8.05165 127.146 8.4701 127.596 9.12922 127.841C9.78988 128.085 10.934 128.206 12.5646 128.206C14.3604 128.206 15.5966 128.022 16.2708 127.652C16.9449 127.282 17.2648 126.623 17.2302 125.674H24.609C24.655 127.697 23.8687 129.166 22.2492 130.08C20.6306 130.994 17.9139 131.451 14.1006 131.451H11.3649C7.80039 131.451 5.17583 131.12 3.49117 130.457C1.80751 129.794 0.752467 128.674 0.32855 127.097C0.182406 126.553 0.102334 125.946 0.0873191 125.276L0.0032365 122.031C-0.0563222 119.757 0.715936 118.16 2.31952 117.237C3.92309 116.317 6.7974 115.857 10.943 115.857H13.1812C16.7457 115.857 19.3613 116.153 21.0259 116.747C22.6921 117.34 23.7176 118.355 24.104 119.792C24.1756 120.057 24.2186 120.27 24.2281 120.431C24.2366 120.591 24.2421 120.866 24.2496 121.257Z" fill="white"/>
<path d="M53.541 131.263H45.7904L44.3479 128.521H34.1924L32.8997 131.263H25.148L33.1594 116.045H44.93L53.541 131.263ZM43.0712 125.779L39.7164 118.85H38.5142L35.4031 125.779H43.0712Z" fill="white"/>
<path d="M78.7991 120.106L78.8524 121.382C78.8922 123.378 77.0919 124.494 73.453 124.732L73.4209 124.92C75.0883 125.06 76.3783 125.36 77.2896 125.821C78.2009 126.28 78.7599 126.895 78.966 127.662C78.9929 127.76 79.0205 127.865 79.0507 127.976C79.0808 128.088 79.1052 128.178 79.1238 128.248L79.1816 131.263H71.6861L71.6868 128.645C71.6566 128.534 71.6245 128.416 71.5911 128.29C71.5571 128.164 71.5347 128.081 71.5231 128.039C71.3845 127.522 71.0341 127.17 70.4725 126.982C69.9109 126.794 68.981 126.699 67.682 126.699H62.7906L62.8987 131.263H55.6446L55.2412 116.045H66.9715C70.8678 116.045 73.6436 116.247 75.3007 116.652C77.2241 117.127 78.3518 117.977 78.6817 119.206C78.7567 119.485 78.7952 119.785 78.7991 120.106ZM71.5501 121.047C71.5315 120.978 71.5071 120.887 71.4769 120.775C71.4474 120.664 71.4172 120.553 71.3871 120.44C71.2523 119.939 70.8954 119.59 70.3178 119.395C69.7402 119.199 68.8026 119.101 67.5036 119.101H62.5709L62.7036 123.601H67.6769C69.1831 123.601 70.2049 123.468 70.7478 123.204C71.2927 122.939 71.561 122.423 71.5475 121.655L71.5501 121.047Z" fill="white"/>
<path d="M103.272 116.045L103.348 119.101H95.6378L95.9664 131.263H88.6288L88.3015 119.101H80.5506L80.4748 116.045H103.272Z" fill="white"/>
<path d="M131.026 122.031L131.111 125.276C131.171 127.551 130.398 129.149 128.794 130.07C127.191 130.991 124.302 131.451 120.129 131.451H116.151C112.586 131.451 109.961 131.12 108.277 130.457C106.593 129.794 105.538 128.674 105.114 127.097C104.968 126.553 104.888 125.946 104.873 125.276L104.789 122.031C104.729 119.757 105.501 118.16 107.105 117.237C108.709 116.317 111.583 115.857 115.729 115.857H119.707C123.244 115.857 125.869 116.188 127.581 116.851C129.293 117.513 130.359 118.627 130.78 120.189C130.93 120.747 131.011 121.362 131.026 122.031ZM123.614 122.366C123.576 121.919 123.553 121.602 123.544 121.414C123.535 121.226 123.506 121.041 123.457 120.859C123.274 120.176 122.838 119.711 122.151 119.468C121.462 119.223 120.262 119.101 118.549 119.101H117.058C114.929 119.101 113.582 119.307 113.016 119.718C112.45 120.131 112.183 121.013 112.215 122.366L112.292 124.962C112.291 125.575 112.346 126.085 112.454 126.49C112.63 127.146 113.062 127.596 113.749 127.841C114.437 128.085 115.624 128.206 117.308 128.206H118.801C120.957 128.206 122.318 128.001 122.884 127.589C123.45 127.177 123.719 126.301 123.69 124.962L123.614 122.366Z" fill="white"/>
<path d="M209.069 125.187L215 131.263H206.659L205.13 129.46L209.069 125.187Z" fill="white"/>
<path d="M213.932 116.027L208.441 122.052L203.445 127.473L201.309 124.955L195.993 131.263H187.776L195.316 123.341L188.451 116.027H196.585L201.325 121.77L205.756 116.027H213.932Z" fill="white"/>
<path d="M157.68 119.456L157.707 120.483C157.78 122.087 156.252 122.98 153.122 123.162L153.131 123.35C154.665 123.504 155.878 123.825 156.769 124.313C157.66 124.801 158.203 125.409 158.399 126.134C158.447 126.316 158.485 126.456 158.511 126.553L158.51 127.474C158.549 128.953 157.757 129.964 156.128 130.509C154.632 131.011 151.958 131.263 148.109 131.263H134.534L134.131 116.045H147.892C151.071 116.045 153.411 116.243 154.913 116.641C156.416 117.038 157.303 117.747 157.578 118.766L157.645 119.017C157.671 119.115 157.683 119.262 157.68 119.456ZM150.42 120.357C150.432 120.3 150.431 120.245 150.416 120.189C150.401 120.134 150.39 120.092 150.383 120.064C150.288 119.715 150.021 119.463 149.579 119.31C149.137 119.157 148.46 119.08 147.548 119.08H141.414L141.529 122.283H147.664C149.542 122.283 150.462 121.85 150.423 120.984L150.42 120.357ZM151.079 126.197C151.06 126.128 151.034 126.03 151.001 125.904C150.809 125.192 149.815 124.837 148.019 124.837H141.595L141.672 128.206H148.123C150.12 128.206 151.11 127.753 151.088 126.846L151.079 126.197Z" fill="white"/>
<path d="M186.921 122.031L187.006 125.276C187.065 127.551 186.293 129.149 184.689 130.07C183.085 130.991 180.197 131.451 176.023 131.451H172.045C168.48 131.451 165.856 131.12 164.171 130.457C162.488 129.794 161.433 128.674 161.009 127.097C160.862 126.553 160.783 125.946 160.767 125.276L160.683 122.031C160.624 119.757 161.396 118.16 163 117.237C164.603 116.317 167.478 115.857 171.623 115.857H175.602C179.139 115.857 181.764 116.188 183.475 116.851C185.188 117.513 186.254 118.627 186.674 120.189C186.824 120.747 186.906 121.362 186.921 122.031ZM179.508 122.366C179.471 121.919 179.447 121.602 179.438 121.414C179.43 121.226 179.401 121.041 179.352 120.859C179.168 120.176 178.732 119.711 178.045 119.468C177.357 119.223 176.157 119.101 174.443 119.101H172.952C170.824 119.101 169.476 119.307 168.91 119.718C168.344 120.131 168.077 121.013 168.11 122.366L168.186 124.962C168.185 125.575 168.24 126.085 168.349 126.49C168.525 127.146 168.956 127.596 169.643 127.841C170.331 128.085 171.518 128.206 173.203 128.206H174.696C176.851 128.206 178.213 128.001 178.779 127.589C179.345 127.177 179.614 126.301 179.585 124.962L179.508 122.366Z" fill="white"/>
<path fill-rule="evenodd" clip-rule="evenodd" d="M128.801 99.371C106.67 94.7427 84.7113 94.8882 62.9102 99.371C84.8737 99.371 106.837 99.371 128.801 99.371Z" fill="white"/>
<path fill-rule="evenodd" clip-rule="evenodd" d="M130.535 99.3707C138.239 83.7225 148.179 72.5624 161.499 68.1807C151.178 78.5778 140.856 88.9736 130.535 99.3707Z" fill="white"/>
<path fill-rule="evenodd" clip-rule="evenodd" d="M174.504 19.2214C151.445 16.3572 127.558 16.5365 103.505 17.3269C127.172 17.9581 150.838 18.5897 174.504 19.2214Z" fill="white"/>
<path fill-rule="evenodd" clip-rule="evenodd" d="M108.336 31.9897C115.782 20.0046 125.327 8.97413 140.043 0.303711C129.474 10.8657 118.905 21.4277 108.336 31.9897Z" fill="white"/>
<path fill-rule="evenodd" clip-rule="evenodd" d="M131.085 55.4342C126.595 44.7497 118.936 37.5094 109.162 32.5693C116.47 40.1908 123.776 47.8128 131.085 55.4342Z" fill="white"/>
<path fill-rule="evenodd" clip-rule="evenodd" d="M131.497 54.606C144.545 46.2429 155.819 36.4642 161.594 22.2979C151.562 33.0667 141.529 43.8361 131.497 54.606Z" fill="white"/>
<path fill-rule="evenodd" clip-rule="evenodd" d="M140.043 0.303711C150.829 5.11371 157.909 12.5167 161.594 22.2979C154.41 14.9657 147.226 7.63494 140.043 0.303711Z" fill="white"/>
<path fill-rule="evenodd" clip-rule="evenodd" d="M94.093 22.0498C116.113 24.5374 138.747 23.9544 161.594 22.2984C139.093 22.2145 116.593 22.1321 94.093 22.0498Z" fill="white"/>
<path fill-rule="evenodd" clip-rule="evenodd" d="M71.303 35.3447C91.0143 39.3182 111.042 38.7452 131.249 35.5928C111.267 35.5105 91.2851 35.4271 71.303 35.3447Z" fill="white"/>
<path fill-rule="evenodd" clip-rule="evenodd" d="M93.2253 23.1665C80.6115 31.2871 70.6612 42.5878 61.5189 54.8545C72.0879 44.2915 82.6569 33.7295 93.2253 23.1665Z" fill="white"/>
<path fill-rule="evenodd" clip-rule="evenodd" d="M61.5189 54.8547C84.2312 58.4576 107.875 58.209 130.258 54.8547C107.345 54.8547 84.4321 54.8547 61.5189 54.8547C65.7053 49.4231 69.5759 43.8132 69.9411 36.2153C67.3097 42.0371 64.1494 49.0314 61.5189 54.8547Z" fill="white"/>
<path fill-rule="evenodd" clip-rule="evenodd" d="M61.5189 54.8545C57.8877 45.6081 51.3603 38.2116 40.4631 33.605C47.4815 40.6886 54.5004 47.7703 61.5189 54.8545Z" fill="white"/>
<path fill-rule="evenodd" clip-rule="evenodd" d="M73.161 2.53955C82.3123 7.3646 89.2353 13.9105 94.093 22.0497C87.1154 15.546 80.1379 9.04326 73.161 2.53955Z" fill="white"/>
<path fill-rule="evenodd" clip-rule="evenodd" d="M161.594 22.2979C157.689 39.4881 158.89 53.8196 162.089 67.0327C161.925 52.1199 161.759 37.2089 161.594 22.2979Z" fill="white"/>
<path fill-rule="evenodd" clip-rule="evenodd" d="M41.454 33.2326C48.2242 19.2279 58.6499 9.06713 72.3561 2.35303C62.0548 12.6464 51.7547 22.9392 41.454 33.2326Z" fill="white"/>
<path fill-rule="evenodd" clip-rule="evenodd" d="M102.823 17.6997C99.2036 18.1039 96.7693 19.6284 95.021 21.8001C97.6222 20.4333 100.223 19.066 102.823 17.6997Z" fill="white"/>
<path fill-rule="evenodd" clip-rule="evenodd" d="M61.5188 54.8545C66.1038 69.2078 66.4157 83.8572 61.4238 98.8737C61.4558 84.2004 61.4873 69.5278 61.5188 54.8545Z" fill="white"/>
<path fill-rule="evenodd" clip-rule="evenodd" d="M130.411 56.252C130.408 56.5005 130.406 56.7491 130.403 56.9971C125.848 72.2527 126.213 85.7309 129.915 98.0043C130.081 84.087 130.246 70.1691 130.411 56.252Z" fill="white"/>
<path fill-rule="evenodd" clip-rule="evenodd" d="M161.594 22.2977C164.888 20.4243 167.062 17.6152 174.504 19.2216C170.2 20.2465 165.897 21.2718 161.594 22.2977Z" fill="white"/>
<path fill-rule="evenodd" clip-rule="evenodd" d="M93.2253 23.1665C92.0758 28.4791 92.3306 33.7923 93.3832 39.1034C93.3305 33.7923 93.2786 28.4791 93.2253 23.1665Z" fill="white"/>
</g>
<defs>
<clipPath id="clip0_16_299">
<rect width="215" height="132" fill="white"/>
</clipPath>
</defs>
</svg>
